<?xml version="1.0" standalone="no"?>
<!DOCTYPE svg PUBLIC "-//W3C//DTD SVG 20010904//EN"
 "http://www.w3.org/TR/2001/REC-SVG-20010904/DTD/svg10.dtd">
<svg version="1.0" xmlns="http://www.w3.org/2000/svg"
 width="707.000000pt" height="451.000000pt" viewBox="0 0 707.000000 451.000000"
 preserveAspectRatio="xMidYMid meet">

<g transform="translate(0.000000,451.000000) scale(0.100000,-0.100000)"
fill="#000000" stroke="none">
<path d="M1695 3933 c-630 -80 -1133 -486 -1330 -1075 -59 -178 -78 -319 -72
-543 7 -263 41 -411 148 -635 140 -294 386 -552 679 -712 282 -154 666 -221
940 -163 334 70 760 366 1169 809 121 131 324 370 364 426 10 15 20 21 26 15
5 -6 53 -64 106 -130 250 -306 537 -596 764 -769 94 -72 234 -167 239 -161 5
4 -26 416 -34 450 -2 11 -21 33 -42 48 -20 16 -76 64 -124 108 l-88 80 0 680
0 680 59 57 59 57 -18 208 c-10 114 -20 212 -22 217 -7 19 -194 -144 -399
-349 -181 -181 -402 -430 -484 -544 l-21 -28 -121 148 c-525 643 -1042 1037
-1463 1117 -75 15 -255 19 -335 9z m374 -389 c158 -46 317 -135 501 -282 120
-96 376 -352 502 -502 126 -151 298 -381 298 -398 0 -18 -125 -191 -242 -333
-305 -374 -606 -641 -873 -774 -166 -84 -249 -105 -408 -105 -655 0 -1197 547
-1197 1210 0 462 258 877 675 1085 255 128 521 163 744 99z m2131 -1186 l-1
-423 -51 55 c-65 71 -298 361 -298 371 0 19 326 417 343 418 4 1 7 -189 7
-421z"/>
<path d="M5225 3929 c-135 -19 -355 -104 -355 -136 0 -10 7 -92 15 -183 8 -91
15 -172 15 -182 0 -13 16 -7 77 28 166 94 315 130 482 114 175 -17 295 -52
454 -133 338 -171 581 -505 642 -877 62 -388 -63 -775 -341 -1054 -94 -93
-240 -197 -339 -242 -256 -114 -523 -144 -709 -80 -43 15 -80 25 -82 23 -8 -7
30 -383 39 -389 25 -16 151 -30 267 -29 406 2 783 163 1081 460 223 224 362
476 430 784 26 116 37 412 20 541 -69 513 -392 965 -856 1196 -66 33 -160 73
-210 89 -209 68 -452 95 -630 70z"/>
</g>
</svg>
